<?xml version="1.0" encoding="utf-8"?>
<!-- Generator: Adobe Illustrator 18.1.0, SVG Export Plug-In . SVG Version: 6.00 Build 0)  -->
<svg version="1.1" id="Layer_1" xmlns="http://www.w3.org/2000/svg" xmlns:xlink="http://www.w3.org/1999/xlink" x="0px" y="0px"
	 viewBox="0 0 408 100" enable-background="new 0 0 408 100" xml:space="preserve">
<g>
	<g>
		<path fill="#606060" d="M98,50L83,23H28.769C25.583,23,23,25.59,23,28.786v42.428C23,74.41,25.583,77,28.769,77H83L98,50z"/>
		<path fill="#BB0E3D" d="M96.501,25.815C95.446,24.069,93.541,23,91.486,23H87l15.201,27L87,77h4.486
			c2.055,0,3.96-1.069,5.015-2.815L110,50L96.501,25.815z"/>
	</g>
	<g>
		<rect x="55" y="38" fill="#FFFFFF" width="4" height="24"/>
		<polygon fill="#FFFFFF" points="47,38 47,55.6 36,38 32,38 32,62 36,62 36,44.4 47,62 51,62 51,38 		"/>
		<polygon fill="#FFFFFF" points="78,38 78,48 67,48 67,38 63,38 63,62 67,62 67,52 78,52 78,62 82,62 82,38 		"/>
	</g>
</g>
<g>
	<g>
		<path fill="#BB0E3D" d="M130.854,31h2.496v11.184h-2.496l-5.328-7.008v7.008h-2.496V31h2.336l5.488,7.199V31z"/>
		<path fill="#BB0E3D" d="M144.069,42.183l-1.04-2.416h-4.688l-1.04,2.416h-2.656L139.477,31h2.416l4.832,11.184H144.069z
			 M140.693,34.327l-1.408,3.248h2.8L140.693,34.327z"/>
		<path fill="#BB0E3D" d="M151.941,33.159v9.024h-2.496v-9.024h-3.168V31h8.832v2.159H151.941z"/>
		<path fill="#BB0E3D" d="M156.933,31h2.496v11.184h-2.496V31z"/>
		<path fill="#BB0E3D" d="M171.589,40.639c-1.131,1.104-2.523,1.656-4.176,1.656s-3.045-0.553-4.176-1.656
			c-1.131-1.104-1.696-2.478-1.696-4.12s0.565-3.016,1.696-4.12c1.13-1.104,2.522-1.656,4.176-1.656s3.045,0.553,4.176,1.656
			c1.13,1.104,1.696,2.478,1.696,4.12S172.719,39.535,171.589,40.639z M170.741,36.527c0-0.997-0.32-1.848-0.96-2.552
			s-1.427-1.056-2.36-1.056c-0.934,0-1.72,0.352-2.36,1.056c-0.64,0.704-0.96,1.555-0.96,2.552c0,0.998,0.32,1.846,0.96,2.544
			c0.64,0.699,1.427,1.048,2.36,1.048c0.933,0,1.72-0.349,2.36-1.048C170.421,38.373,170.741,37.525,170.741,36.527z"/>
		<path fill="#BB0E3D" d="M183.221,31h2.496v11.184h-2.496l-5.328-7.008v7.008h-2.496V31h2.336l5.488,7.199V31z"/>
		<path fill="#BB0E3D" d="M196.437,42.183l-1.04-2.416h-4.688l-1.04,2.416h-2.656L191.844,31h2.416l4.832,11.184H196.437z
			 M193.06,34.327l-1.408,3.248h2.8L193.06,34.327z"/>
		<path fill="#BB0E3D" d="M200.388,42.183V31h2.496v8.96h4.768v2.224H200.388z"/>
		<path fill="#BB0E3D" d="M218.836,39.975c1.226,0,2.229-0.485,3.008-1.456l1.6,1.648c-1.27,1.429-2.766,2.144-4.488,2.144
			s-3.141-0.544-4.256-1.632s-1.672-2.461-1.672-4.12c0-1.658,0.568-3.042,1.704-4.152c1.136-1.108,2.525-1.664,4.168-1.664
			c1.834,0,3.37,0.699,4.608,2.097l-1.552,1.76c-0.79-0.981-1.771-1.472-2.944-1.472c-0.939,0-1.742,0.307-2.408,0.92
			s-1,1.439-1,2.479s0.315,1.875,0.944,2.504C217.177,39.661,217.94,39.975,218.836,39.975z"/>
		<path fill="#BB0E3D" d="M233.3,42.183l-1.04-2.416h-4.688l-1.04,2.416h-2.656L228.708,31h2.416l4.832,11.184H233.3z
			 M229.924,34.327l-1.408,3.248h2.8L229.924,34.327z"/>
		<path fill="#BB0E3D" d="M245.076,31h2.496v11.184h-2.496l-5.328-7.008v7.008h-2.496V31h2.336l5.488,7.199V31z"/>
		<path fill="#BB0E3D" d="M255.46,39.975c1.226,0,2.229-0.485,3.008-1.456l1.6,1.648c-1.27,1.429-2.766,2.144-4.488,2.144
			s-3.141-0.544-4.256-1.632s-1.672-2.461-1.672-4.12c0-1.658,0.568-3.042,1.704-4.152c1.136-1.108,2.525-1.664,4.168-1.664
			c1.834,0,3.37,0.699,4.608,2.097l-1.552,1.76c-0.79-0.981-1.771-1.472-2.944-1.472c-0.939,0-1.742,0.307-2.408,0.92
			s-1,1.439-1,2.479s0.315,1.875,0.944,2.504C253.801,39.661,254.564,39.975,255.46,39.975z"/>
		<path fill="#BB0E3D" d="M270.1,31v2.224h-5.568v2.304h5.008v2.128h-5.008v2.32h5.744v2.208h-8.24V31H270.1z"/>
		<path fill="#BB0E3D" d="M281.572,34.711c0,1.792-0.71,2.949-2.128,3.472l2.832,4h-3.072l-2.48-3.568h-1.728v3.568H272.5V31h4.24
			c1.738,0,2.979,0.293,3.72,0.88S281.572,33.41,281.572,34.711z M278.563,36.04c0.309-0.277,0.464-0.718,0.464-1.32
			s-0.16-1.017-0.48-1.24c-0.32-0.224-0.88-0.336-1.68-0.336h-1.872v3.312h1.824C277.673,36.456,278.254,36.317,278.563,36.04z"/>
		<path fill="#BB0E3D" d="M288.355,31h2.496v11.184h-2.496V31z"/>
		<path fill="#BB0E3D" d="M301.427,31h2.496v11.184h-2.496l-5.328-7.008v7.008h-2.496V31h2.336l5.488,7.199V31z"/>
		<path fill="#BB0E3D" d="M309.291,33.231c-0.24,0.197-0.36,0.459-0.36,0.784s0.146,0.584,0.44,0.776
			c0.293,0.191,0.971,0.418,2.032,0.68c1.061,0.262,1.885,0.653,2.472,1.176c0.586,0.522,0.88,1.285,0.88,2.288
			s-0.376,1.816-1.128,2.44s-1.742,0.936-2.968,0.936c-1.771,0-3.365-0.656-4.784-1.968l1.488-1.824
			c1.205,1.056,2.32,1.584,3.344,1.584c0.458,0,0.818-0.099,1.08-0.296s0.392-0.464,0.392-0.8s-0.139-0.603-0.416-0.8
			s-0.827-0.397-1.648-0.601c-1.301-0.309-2.253-0.712-2.856-1.208s-0.904-1.274-0.904-2.336s0.381-1.88,1.144-2.456
			c0.762-0.576,1.714-0.864,2.856-0.864c0.747,0,1.493,0.129,2.24,0.385s1.397,0.618,1.952,1.088l-1.264,1.824
			c-0.971-0.736-1.973-1.104-3.008-1.104C309.859,32.935,309.531,33.034,309.291,33.231z"/>
		<path fill="#BB0E3D" d="M321.522,33.159v9.024h-2.496v-9.024h-3.168V31h8.832v2.159H321.522z"/>
		<path fill="#BB0E3D" d="M326.515,31h2.496v11.184h-2.496V31z"/>
		<path fill="#BB0E3D" d="M336.498,33.159v9.024h-2.496v-9.024h-3.168V31h8.832v2.159H336.498z"/>
		<path fill="#BB0E3D" d="M344.45,39.295c0.416,0.518,0.976,0.775,1.68,0.775s1.261-0.258,1.672-0.775s0.616-1.225,0.616-2.12V31
			h2.496v6.256c0,1.621-0.448,2.866-1.344,3.735c-0.896,0.87-2.043,1.305-3.44,1.305c-1.397,0-2.547-0.438-3.448-1.312
			c-0.901-0.874-1.352-2.117-1.352-3.728V31h2.496v6.176C343.826,38.071,344.034,38.778,344.45,39.295z"/>
		<path fill="#BB0E3D" d="M358.242,33.159v9.024h-2.496v-9.024h-3.168V31h8.832v2.159H358.242z"/>
		<path fill="#BB0E3D" d="M371.297,31v2.224h-5.568v2.304h5.008v2.128h-5.008v2.32h5.744v2.208h-8.24V31H371.297z"/>
	</g>
</g>
<g>
	<g>
		<path fill="#606060" d="M133.271,54.341h3.276V69.02h-3.276l-6.993-9.198v9.198h-3.276V54.341h3.066l7.203,9.45V54.341z"/>
		<path fill="#606060" d="M146.899,66.122c1.61,0,2.926-0.637,3.948-1.91l2.1,2.162c-1.667,1.877-3.63,2.814-5.891,2.814
			c-2.261,0-4.124-0.714-5.586-2.142c-1.463-1.429-2.195-3.23-2.195-5.408c0-2.177,0.746-3.993,2.237-5.449
			c1.491-1.456,3.314-2.184,5.47-2.184c2.408,0,4.424,0.917,6.048,2.751l-2.037,2.31c-1.036-1.288-2.324-1.932-3.864-1.932
			c-1.232,0-2.286,0.402-3.16,1.207c-0.875,0.806-1.312,1.891-1.312,3.255c0,1.365,0.413,2.461,1.239,3.287
			S145.724,66.122,146.899,66.122z"/>
		<path fill="#606060" d="M155.531,54.341h3.276V69.02h-3.276V54.341z"/>
		<path fill="#606060" d="M178.073,55.654c1.029,0.875,1.543,2.219,1.543,4.031c0,1.813-0.528,3.14-1.585,3.979
			c-1.057,0.841-2.67,1.261-4.84,1.261h-1.953v4.095h-3.276V54.341h5.187C175.403,54.341,177.044,54.779,178.073,55.654z
			 M175.669,61.428c0.392-0.44,0.588-1.085,0.588-1.932s-0.256-1.449-0.767-1.806c-0.511-0.357-1.306-0.536-2.383-0.536h-1.869
			v4.936h2.205C174.535,62.09,175.277,61.87,175.669,61.428z"/>
		<path fill="#606060" d="M189.15,63.812v-6.09h3.171V69.02h-3.171v-1.491c-0.784,1.106-1.795,1.659-3.034,1.659
			c-1.239,0-2.279-0.389-3.119-1.165c-0.84-0.777-1.26-1.929-1.26-3.455v-6.846h3.171v6.153c0,1.735,0.637,2.604,1.911,2.604
			c0.63,0,1.176-0.228,1.638-0.683S189.15,64.68,189.15,63.812z"/>
		<path fill="#606060" d="M201.813,57.533c1.372,0,2.569,0.536,3.591,1.606c1.022,1.071,1.533,2.447,1.533,4.127
			s-0.525,3.087-1.575,4.221c-1.05,1.134-2.244,1.701-3.58,1.701c-1.337,0-2.447-0.553-3.329-1.659v1.491h-3.15V53.438h3.15v5.544
			C199.321,58.016,200.441,57.533,201.813,57.533z M198.412,63.381c0,0.917,0.255,1.666,0.767,2.247
			c0.511,0.581,1.13,0.872,1.858,0.872c0.728,0,1.365-0.291,1.911-0.872c0.546-0.581,0.819-1.326,0.819-2.236
			s-0.266-1.673-0.798-2.289c-0.532-0.616-1.169-0.924-1.911-0.924c-0.742,0-1.369,0.305-1.879,0.913
			C198.667,61.702,198.412,62.464,198.412,63.381z"/>
		<path fill="#606060" d="M212.439,69.02h-3.15V53.438h3.15V69.02z"/>
		<path fill="#606060" d="M215.684,56.284c-0.357-0.357-0.536-0.795-0.536-1.312s0.179-0.956,0.536-1.312
			c0.357-0.357,0.794-0.536,1.312-0.536s0.956,0.179,1.312,0.536c0.357,0.356,0.536,0.795,0.536,1.312s-0.179,0.955-0.536,1.312
			c-0.357,0.356-0.794,0.535-1.312,0.535S216.041,56.64,215.684,56.284z M218.571,69.02h-3.15V57.722h3.15V69.02z"/>
		<path fill="#606060" d="M226.971,66.395c1.05,0,1.995-0.525,2.835-1.575l1.869,2.101c-1.456,1.512-3.031,2.268-4.725,2.268
			c-1.694,0-3.126-0.535-4.295-1.606s-1.753-2.471-1.753-4.2c0-1.729,0.591-3.136,1.774-4.221s2.586-1.628,4.211-1.628
			c0.812,0,1.634,0.168,2.467,0.504s1.564,0.834,2.194,1.491l-1.638,2.143c-0.364-0.435-0.809-0.771-1.333-1.009
			c-0.525-0.237-1.047-0.356-1.564-0.356c-0.826,0-1.537,0.27-2.132,0.809s-0.893,1.288-0.893,2.247s0.297,1.704,0.893,2.236
			S226.173,66.395,226.971,66.395z"/>
		<path fill="#606060" d="M243.372,69.02h-2.961v-1.365c-0.812,1.022-1.816,1.533-3.014,1.533c-1.197,0-2.202-0.347-3.013-1.039
			c-0.812-0.693-1.218-1.617-1.218-2.772s0.42-2.02,1.26-2.594c0.84-0.573,1.988-0.86,3.444-0.86h2.352v-0.063
			c0-1.204-0.637-1.806-1.911-1.806c-0.546,0-1.124,0.108-1.732,0.325c-0.609,0.218-1.124,0.486-1.543,0.809l-1.407-2.037
			c1.483-1.078,3.178-1.617,5.082-1.617c1.372,0,2.492,0.344,3.36,1.029c0.868,0.687,1.302,1.771,1.302,3.255V69.02z
			 M240.201,64.715v-0.546h-1.974c-1.26,0-1.89,0.392-1.89,1.176c0,0.406,0.15,0.718,0.451,0.935
			c0.301,0.217,0.731,0.325,1.292,0.325s1.053-0.171,1.48-0.515C239.987,65.748,240.201,65.29,240.201,64.715z"/>
		<path fill="#606060" d="M249.882,59.99v5.062c0,0.434,0.112,0.773,0.336,1.019c0.224,0.245,0.49,0.367,0.798,0.367
			c0.588,0,1.085-0.266,1.491-0.798l1.176,2.205c-0.98,0.896-2.013,1.344-3.097,1.344c-1.085,0-2.002-0.357-2.751-1.071
			c-0.749-0.714-1.124-1.687-1.124-2.919V59.99h-1.323v-2.268h1.323v-3.381h3.171v3.381h2.73v2.268H249.882z"/>
		<path fill="#606060" d="M255.625,56.284c-0.357-0.357-0.536-0.795-0.536-1.312s0.179-0.956,0.536-1.312
			c0.357-0.357,0.794-0.536,1.312-0.536s0.956,0.179,1.312,0.536c0.357,0.356,0.536,0.795,0.536,1.312s-0.179,0.955-0.536,1.312
			c-0.357,0.356-0.794,0.535-1.312,0.535S255.982,56.64,255.625,56.284z M258.513,69.02h-3.15V57.722h3.15V69.02z"/>
		<path fill="#606060" d="M272.792,63.371c0,1.639-0.567,3.018-1.701,4.138c-1.134,1.12-2.559,1.68-4.273,1.68
			s-3.14-0.56-4.273-1.68s-1.701-2.499-1.701-4.138c0-1.638,0.567-3.02,1.701-4.147c1.134-1.126,2.559-1.69,4.273-1.69
			s3.14,0.564,4.273,1.69C272.226,60.351,272.792,61.733,272.792,63.371z M264.015,63.371c0,0.925,0.262,1.677,0.787,2.258
			c0.525,0.581,1.197,0.872,2.016,0.872s1.491-0.291,2.016-0.872s0.788-1.333,0.788-2.258c0-0.924-0.263-1.68-0.788-2.268
			s-1.197-0.882-2.016-0.882s-1.491,0.294-2.016,0.882C264.277,61.691,264.015,62.447,264.015,63.371z"/>
		<path fill="#606060" d="M278.273,62.72v6.3h-3.15V57.722h3.15v1.26c0.952-0.966,2.023-1.449,3.213-1.449s2.188,0.42,2.993,1.261
			c0.805,0.84,1.208,1.96,1.208,3.359v6.867h-3.15v-6.384c0-1.736-0.637-2.604-1.911-2.604c-0.63,0-1.18,0.228-1.648,0.683
			C278.507,61.169,278.273,61.838,278.273,62.72z"/>
		<path fill="#606060" d="M297.047,65.502c0,1.113-0.41,2.006-1.229,2.678s-1.858,1.008-3.119,1.008c-0.84,0-1.715-0.15-2.625-0.451
			s-1.729-0.746-2.457-1.334l1.386-1.974c1.176,0.91,2.429,1.365,3.759,1.365c0.406,0,0.728-0.081,0.966-0.242
			c0.238-0.16,0.357-0.374,0.357-0.641c0-0.266-0.165-0.511-0.494-0.734c-0.329-0.224-0.805-0.434-1.428-0.63
			s-1.099-0.364-1.428-0.504c-0.329-0.141-0.704-0.344-1.124-0.609c-0.854-0.532-1.281-1.319-1.281-2.362s0.42-1.894,1.26-2.552
			s1.925-0.987,3.255-0.987s2.66,0.448,3.99,1.345l-1.176,2.1c-0.98-0.672-1.957-1.008-2.929-1.008
			c-0.973,0-1.459,0.266-1.459,0.798c0,0.294,0.154,0.525,0.462,0.693c0.308,0.168,0.819,0.364,1.533,0.588
			c0.714,0.224,1.222,0.396,1.522,0.515c0.301,0.118,0.662,0.304,1.082,0.556C296.655,63.595,297.047,64.389,297.047,65.502z"/>
		<path fill="#606060" d="M305.321,69.02V54.341h3.276v11.76h6.258v2.919H305.321z"/>
		<path fill="#606060" d="M328.084,63.371c0,1.639-0.567,3.018-1.701,4.138c-1.134,1.12-2.559,1.68-4.273,1.68
			s-3.14-0.56-4.273-1.68s-1.701-2.499-1.701-4.138c0-1.638,0.567-3.02,1.701-4.147c1.134-1.126,2.559-1.69,4.273-1.69
			s3.14,0.564,4.273,1.69C327.518,60.351,328.084,61.733,328.084,63.371z M319.307,63.371c0,0.925,0.262,1.677,0.787,2.258
			c0.525,0.581,1.197,0.872,2.016,0.872s1.491-0.291,2.016-0.872s0.788-1.333,0.788-2.258c0-0.924-0.263-1.68-0.788-2.268
			s-1.197-0.882-2.016-0.882s-1.491,0.294-2.016,0.882C319.569,61.691,319.307,62.447,319.307,63.371z"/>
		<path fill="#606060" d="M335.833,66.395c1.05,0,1.995-0.525,2.835-1.575l1.869,2.101c-1.456,1.512-3.031,2.268-4.725,2.268
			c-1.694,0-3.126-0.535-4.295-1.606s-1.753-2.471-1.753-4.2c0-1.729,0.591-3.136,1.774-4.221s2.586-1.628,4.211-1.628
			c0.812,0,1.634,0.168,2.467,0.504s1.564,0.834,2.194,1.491l-1.638,2.143c-0.364-0.435-0.809-0.771-1.333-1.009
			c-0.525-0.237-1.047-0.356-1.564-0.356c-0.826,0-1.537,0.27-2.132,0.809s-0.893,1.288-0.893,2.247s0.297,1.704,0.893,2.236
			S335.035,66.395,335.833,66.395z"/>
		<path fill="#606060" d="M352.234,69.02h-2.961v-1.365c-0.812,1.022-1.816,1.533-3.014,1.533c-1.197,0-2.202-0.347-3.013-1.039
			c-0.812-0.693-1.218-1.617-1.218-2.772s0.42-2.02,1.26-2.594c0.84-0.573,1.988-0.86,3.444-0.86h2.352v-0.063
			c0-1.204-0.637-1.806-1.911-1.806c-0.546,0-1.124,0.108-1.732,0.325c-0.609,0.218-1.124,0.486-1.543,0.809l-1.407-2.037
			c1.483-1.078,3.178-1.617,5.082-1.617c1.372,0,2.492,0.344,3.36,1.029c0.868,0.687,1.302,1.771,1.302,3.255V69.02z
			 M349.063,64.715v-0.546h-1.974c-1.26,0-1.89,0.392-1.89,1.176c0,0.406,0.15,0.718,0.451,0.935
			c0.301,0.217,0.731,0.325,1.292,0.325s1.053-0.171,1.48-0.515C348.85,65.748,349.063,65.29,349.063,64.715z"/>
		<path fill="#606060" d="M358.744,59.99v5.062c0,0.434,0.112,0.773,0.336,1.019c0.224,0.245,0.49,0.367,0.798,0.367
			c0.588,0,1.085-0.266,1.491-0.798l1.176,2.205c-0.98,0.896-2.013,1.344-3.097,1.344c-1.085,0-2.002-0.357-2.751-1.071
			c-0.749-0.714-1.124-1.687-1.124-2.919V59.99h-1.323v-2.268h1.323v-3.381h3.171v3.381h2.73v2.268H358.744z"/>
		<path fill="#606060" d="M375.397,63.371c0,1.639-0.567,3.018-1.701,4.138c-1.134,1.12-2.559,1.68-4.273,1.68
			s-3.14-0.56-4.273-1.68s-1.701-2.499-1.701-4.138c0-1.638,0.567-3.02,1.701-4.147c1.134-1.126,2.559-1.69,4.273-1.69
			s3.14,0.564,4.273,1.69C374.83,60.351,375.397,61.733,375.397,63.371z M366.619,63.371c0,0.925,0.262,1.677,0.787,2.258
			c0.525,0.581,1.197,0.872,2.016,0.872s1.491-0.291,2.016-0.872s0.788-1.333,0.788-2.258c0-0.924-0.263-1.68-0.788-2.268
			s-1.197-0.882-2.016-0.882s-1.491,0.294-2.016,0.882C366.881,61.691,366.619,62.447,366.619,63.371z"/>
		<path fill="#606060" d="M383.67,60.494c-0.938,0-1.638,0.333-2.1,0.998s-0.693,1.543-0.693,2.636v4.893h-3.15V57.722h3.15v1.491
			c0.406-0.462,0.914-0.854,1.522-1.177c0.609-0.321,1.229-0.489,1.858-0.504l0.021,2.961H383.67z"/>
	</g>
</g>
</svg>
